<?xml version="1.0" encoding="UTF-8" standalone="no"?>
<!-- Created with Inkscape (http://www.inkscape.org/) -->

<svg
   xmlns:dc="http://purl.org/dc/elements/1.1/"
   xmlns:cc="http://creativecommons.org/ns#"
   xmlns:rdf="http://www.w3.org/1999/02/22-rdf-syntax-ns#"
   xmlns:svg="http://www.w3.org/2000/svg"
   xmlns="http://www.w3.org/2000/svg"
   xmlns:xlink="http://www.w3.org/1999/xlink"
   xmlns:sodipodi="http://sodipodi.sourceforge.net/DTD/sodipodi-0.dtd"
   xmlns:inkscape="http://www.inkscape.org/namespaces/inkscape"
   width="210mm"
   height="297mm"
   id="svg2"
   version="1.1"
   inkscape:version="0.48.1 r9760"
   sodipodi:docname="tronc-palissade-indestructible.svg">
  <defs
     id="defs4">
    <linearGradient
       id="linearGradient3823">
      <stop
         style="stop-color:#077400;stop-opacity:1;"
         offset="0"
         id="stop3825" />
      <stop
         id="stop3835"
         offset="0.30718854"
         style="stop-color:#6d5d3c;stop-opacity:1;" />
      <stop
         style="stop-color:#ad7a38;stop-opacity:1;"
         offset="0.82353979"
         id="stop3837" />
      <stop
         style="stop-color:#7b5411;stop-opacity:1;"
         offset="1"
         id="stop3827" />
    </linearGradient>
    <linearGradient
       id="linearGradient2989">
      <stop
         style="stop-color:#cb9f00;stop-opacity:1;"
         offset="0"
         id="stop2991" />
      <stop
         style="stop-color:#000000;stop-opacity:0;"
         offset="1"
         id="stop2993" />
    </linearGradient>
    <linearGradient
       inkscape:collect="always"
       xlink:href="#linearGradient2989"
       id="linearGradient2995"
       x1="197.14285"
       y1="580.93365"
       x2="408.57141"
       y2="589.50507"
       gradientUnits="userSpaceOnUse" />
    <radialGradient
       inkscape:collect="always"
       xlink:href="#linearGradient3823"
       id="radialGradient3845"
       cx="250.80647"
       cy="695.17218"
       fx="250.80647"
       fy="695.17218"
       r="192.0351"
       gradientTransform="matrix(-2.351419,-0.035519,0.02646528,-1.7520447,822.1596,1922.802)"
       gradientUnits="userSpaceOnUse" />
  </defs>
  <sodipodi:namedview
     id="base"
     pagecolor="#ffffff"
     bordercolor="#666666"
     borderopacity="1.0"
     inkscape:pageopacity="0.0"
     inkscape:pageshadow="2"
     inkscape:zoom="0.62"
     inkscape:cx="-193.95365"
     inkscape:cy="520"
     inkscape:document-units="px"
     inkscape:current-layer="layer1"
     showgrid="false"
     inkscape:window-width="1920"
     inkscape:window-height="1123"
     inkscape:window-x="0"
     inkscape:window-y="24"
     inkscape:window-maximized="1" />
  <metadata
     id="metadata7">
    <rdf:RDF>
      <cc:Work
         rdf:about="">
        <dc:format>image/svg+xml</dc:format>
        <dc:type
           rdf:resource="http://purl.org/dc/dcmitype/StillImage" />
        <dc:title />
      </cc:Work>
    </rdf:RDF>
  </metadata>
  <g
     inkscape:label="Calque 1"
     inkscape:groupmode="layer"
     id="layer1">
    <path
       style="fill:url(#linearGradient2995);fill-opacity:1;stroke:#000000;stroke-width:8.69999999999999929;stroke-linecap:butt;stroke-linejoin:round;stroke-opacity:1;stroke-miterlimit:4;stroke-dasharray:none"
       d="m 160,223.79075 c 11.42857,668.57143 11.42857,668.57143 11.42857,668.57143 l 38.94697,20.18494 35.33875,5.52935 42.10983,-7.87319 L 320,892.36218 311.42857,218.07647 237.14286,83.790754 z"
       id="path2987"
       inkscape:connector-curvature="0"
       sodipodi:nodetypes="ccccccccc" />
    <path
       style="fill:url(#radialGradient3845);stroke:#000000;stroke-width:4.70000000000000018;stroke-linecap:butt;stroke-linejoin:miter;stroke-opacity:1;stroke-miterlimit:4;stroke-dasharray:none;fill-opacity:1"
       d="m 158.06452,673.32992 c -6.88172,5.16129 -6.45162,2.15054 -6.45162,6.45162 0,0.53763 0.38017,1.23274 0,1.6129 -0.38016,0.38017 -1.23274,-0.38016 -1.6129,0 -0.0519,0.0519 0,4.44754 0,4.83871 0,0.39117 0.0519,4.78684 0,4.83871 -0.38016,0.38016 -1.23274,-0.38016 -1.6129,0 -0.49943,0.49943 0.49943,7.56509 0,8.06452 -0.38017,0.38016 -1.23274,-0.38017 -1.61291,0 -0.76033,0.76033 1.07527,3.2258 0,3.2258 -0.53763,0 0,-2.15054 0,-1.6129 0,1.07527 0,2.15054 0,3.22581 0,0.53763 0.38017,1.23273 0,1.6129 -0.38016,0.38016 -1.23273,-0.38017 -1.6129,0 -0.38016,0.38016 0,1.07527 0,1.6129 -0.53763,0 -1.23274,-0.38016 -1.6129,0 -0.80645,0.80645 0.80645,4.03226 0,4.83871 -0.38017,0.38017 -1.23274,-0.38016 -1.61291,0 -0.76033,0.76033 0.76033,2.46548 0,3.22581 -0.38016,0.38016 -1.23273,-0.38017 -1.6129,0 -0.80645,0.80645 0.80645,4.03226 0,4.83871 -0.38016,0.38016 -1.23274,-0.38017 -1.6129,0 -0.38812,0.38811 0.38811,6.0635 0,6.45161 -0.38017,0.38017 -1.23274,-0.38016 -1.61291,0 -0.44132,0.44133 0.43749,5.57663 0,6.45161 -0.34003,0.68006 -1.27287,0.93285 -1.6129,1.61291 -0.64516,1.29032 0.64516,3.54838 0,4.83871 -0.34003,0.68006 -1.27287,0.93284 -1.6129,1.6129 -0.48088,0.96175 0.76033,2.46548 0,3.22581 -0.38017,0.38016 -1.23274,-0.38017 -1.61291,0 -0.76033,0.76033 0.34003,2.20571 0,3.2258 -0.38016,1.1405 -1.23273,2.08531 -1.6129,3.22581 -0.17001,0.51004 0.24044,1.13203 0,1.6129 -0.34003,0.68006 -1.37246,0.89159 -1.6129,1.61291 -0.68006,2.04017 0.52158,4.36528 0,6.45161 -0.29158,1.16629 -1.23274,2.08531 -1.61291,3.22581 -0.17001,0.51004 0.17002,1.10285 0,1.6129 -3.89431,11.68293 0.46501,-2.54292 -3.2258,4.83871 -0.24044,0.48087 0.24044,1.13203 0,1.6129 -0.34003,0.68006 -1.27287,0.93284 -1.6129,1.6129 -0.64517,1.29033 0.64516,3.54839 0,4.83871 -0.34003,0.68006 -1.27288,0.93285 -1.61291,1.61291 -0.35885,0.7177 0.24591,5.71389 0,6.45161 -0.24044,0.72131 -1.37246,0.89159 -1.6129,1.6129 -0.34003,1.02009 0.34003,2.20572 0,3.22581 -0.24044,0.72131 -1.27287,0.93284 -1.6129,1.6129 -0.24044,0.48088 0,1.07527 0,1.61291 -0.53764,0.53763 -1.27288,0.93284 -1.61291,1.6129 -0.64516,1.29032 0.64516,3.54839 0,4.83871 -0.34003,0.68006 -1.27287,0.93284 -1.6129,1.6129 -0.64516,1.29033 0.64516,3.54839 0,4.83871 -0.34003,0.68006 -1.27287,0.93285 -1.6129,1.61291 -0.50688,1.01374 0.50687,5.43786 0,6.45161 -0.34003,0.68006 -1.27288,0.93284 -1.61291,1.6129 -0.48087,0.96175 0.76033,2.46548 0,3.22581 -0.38016,0.38016 -1.23274,-0.38017 -1.6129,0 -0.76033,0.76033 0.76033,2.46547 0,3.2258 -0.38017,0.38017 -1.23274,-0.38016 -1.6129,0 -0.80646,0.80646 0.80645,4.03226 0,4.83871 -0.38017,0.38017 -1.23274,-0.38016 -1.61291,0 -0.76033,0.76033 0.76033,2.46548 0,3.22581 -0.38016,0.38017 -1.23274,-0.38016 -1.6129,0 -0.80645,0.80645 0.80645,4.03226 0,4.83871 -0.38017,0.38017 -1.23274,-0.38016 -1.6129,0 -0.76033,0.76033 0.48087,2.26406 0,3.22581 -0.34003,0.68006 -1.27288,0.93284 -1.61291,1.6129 -0.24043,0.48087 0.38017,1.23274 0,1.6129 -0.38016,0.38017 -1.23274,-0.38016 -1.6129,0 -0.806452,0.80645 0.80645,4.03226 0,4.83871 -0.380165,0.38017 -1.232738,-0.38016 -1.612903,0 -0.76033,0.76033 0.76033,2.46548 0,3.22581 -0.380165,0.38016 -1.232739,-0.38017 -1.612903,0 -0.76033,0.76033 0.480874,2.26406 0,3.22581 -0.34003,0.68006 -1.272874,0.93284 -1.612904,1.6129 -0.480875,0.96175 0.76033,2.46548 0,3.22581 -0.380165,0.38016 -1.232738,-0.38017 -1.612903,0 -0.806452,0.80645 0.806452,4.03225 0,4.83871 -0.380165,0.38016 -1.232738,-0.38017 -1.612903,0 -0.76033,0.76033 0.480875,2.26405 0,3.2258 -0.34003,0.68006 -1.272873,0.93285 -1.612903,1.6129 -0.319752,0.63951 0.329736,4.50898 0,4.83871 -0.380165,0.38017 -1.232739,-0.38016 -1.612904,0 -0.760329,0.76033 0.76033,2.46548 0,3.22581 -0.380165,0.38017 -1.232738,-0.38016 -1.612903,0 -0.388114,0.38812 0.388115,6.0635 0,6.45161 -0.380165,0.38017 -1.232738,-0.38016 -1.612903,0 -0.441326,0.44133 0.43749,5.57664 0,6.45162 -0.34003,0.68006 -1.272873,0.93284 -1.612903,1.6129 -0.43749,0.87498 0.441326,6.01029 0,6.45161 -0.380165,0.38017 -1.232739,-0.38016 -1.612903,0 -0.806452,0.80645 0.806451,4.03226 0,4.83871 -0.380165,0.38017 -1.232739,-0.38016 -1.612904,0 -0.380165,0.38017 0,1.07527 0,1.61291 0,0.76048 0.0731,7.99141 0,8.06451 -0.380165,0.38017 -1.232738,-0.38016 -1.612903,0 -0.380165,0.38017 0,1.07527 0,1.61291 0,2.68817 0,5.37634 0,8.06451 0,0.53764 0.380165,1.23274 0,1.6129 -0.380165,0.38017 -1.232738,-0.38016 -1.612903,0 -0.380165,0.38017 0,1.07527 0,1.61291 0,3.2258 0,6.45161 0,9.67742 0,0.53763 0.380165,1.23274 0,1.6129 -0.380165,0.38017 -1.232738,-0.38016 -1.612903,0 -0.499431,0.49943 0.49943,7.56509 0,8.06452 -0.380165,0.38016 -1.232739,-0.38017 -1.612904,0 -0.388114,0.38811 0.388115,6.06349 0,6.45161 -0.380165,0.38016 -1.232738,-0.38017 -1.612903,0 -0.380165,0.38016 0,1.07527 0,1.6129 0,0.76048 0.0731,7.99142 0,8.06452 -0.380165,0.38016 -1.232738,-0.38017 -1.612903,0 -0.380165,0.38016 0,1.07527 0,1.6129 0,2.68817 0,5.37635 0,8.06452 0,0.53763 0,1.07527 0,1.6129 0,0.53764 0.380165,1.23274 0,1.6129 -0.380165,0.38017 -1.232738,-0.38016 -1.612903,0 -0.380165,0.38017 0,1.07527 0,1.61291 0,0.59231 -0.06491,6.38671 0,6.45161 0.380165,0.38017 1.232738,-0.38016 1.612903,0 0.76033,0.76033 -0.76033,2.46548 0,3.22581 0.380165,0.38016 1.232738,-0.38017 1.612903,0 0.76033,0.76033 -0.76033,2.46547 0,3.2258 0.380165,0.38017 1.232738,-0.38016 1.612903,0 0.380165,0.38017 -0.380165,1.23274 0,1.61291 0.380165,0.38016 1.232739,-0.38017 1.612904,0 0.558771,0.55877 -0.558772,2.66703 0,3.2258 0.380165,0.38017 1.132028,-0.24043 1.612903,0 2.470287,1.23515 1.261317,2.87422 3.225806,4.83871 0.380165,0.38017 1.132029,-0.24043 1.612904,0 6.712516,3.35623 -1.724251,-0.11134 1.612903,3.22583 0.76033,0.7603 2.465476,-0.76035 3.225806,0 0.380165,0.3801 -0.380165,1.2327 0,1.6129 0.380165,0.3801 1.232738,-0.3802 1.612903,0 0.380165,0.3801 -0.380165,1.2327 0,1.6129 0.76033,0.7603 2.465477,-0.7603 3.225807,0 0.380165,0.3802 -0.380165,1.2327 0,1.6129 0.76033,0.7603 2.465476,-0.7603 3.225806,0 0.380165,0.3802 -0.380165,1.2327 0,1.6129 0.76033,0.7603 2.331129,-0.5965 3.225807,0 1.897893,1.2653 2.940813,3.5734 4.838713,4.8387 1.00028,0.6669 2.08531,1.2327 3.2258,1.6129 1.02009,0.34 2.46548,-0.7603 3.22581,0 0.38016,0.3802 -0.38017,1.2327 0,1.6129 0.76033,0.7603 2.46548,-0.7603 3.22581,0 0.38016,0.3802 -0.38017,1.2327 0,1.6129 0.80645,0.8065 4.03225,-0.8064 4.83871,0 0.38016,0.3802 -0.38017,1.2327 0,1.6129 0.2503,0.2503 4.21109,-0.2092 4.83871,0 1.14049,0.3802 2.15053,1.0753 3.2258,1.6129 1.07527,0.5377 2.22553,0.9461 3.22581,1.6129 0.63263,0.4218 0.89159,1.3725 1.6129,1.6129 1.02009,0.3401 2.15054,0 3.22581,0 0.53763,0 1.13203,-0.2404 1.6129,0 0.68006,0.3401 0.93284,1.2729 1.6129,1.6129 0.96175,0.4809 2.20572,-0.34 3.22581,0 1.1405,0.3802 2.05951,1.3214 3.22581,1.6129 1.04316,0.2608 2.20571,-0.34 3.2258,0 0.72132,0.2405 0.89159,1.3725 1.61291,1.6129 0.007,0 4.83717,0 4.83871,0 0.38016,0.3802 -0.38017,1.2328 0,1.6129 0.38811,0.3882 6.06349,-0.3881 6.45161,0 0.38016,0.3802 -0.38017,1.2328 0,1.6129 0.0649,0.065 5.8593,0 6.45161,0 4.30108,0 -0.53763,-0.5376 1.61291,1.6129 0.38016,0.3802 1.07526,0 1.6129,0 1.86698,0 6.62454,-0.3599 8.06451,0 1.1663,0.2916 2.08532,1.2328 3.22581,1.6129 0.62762,0.2093 4.58841,-0.2503 4.83871,0 0.38017,0.3802 -0.38016,1.2328 0,1.613 0.56616,0.5661 6.95043,-0.5571 8.06452,0 0.68006,0.34 0.93284,1.2728 1.6129,1.6129 0.97939,0.4896 8.69803,-0.4897 9.67742,0 0.68006,0.34 0.93284,1.2728 1.6129,1.6129 0.48088,0.2404 1.07527,0 1.61291,0 0.53763,0 1.07526,0 1.6129,0 2.68817,0 5.37634,0 8.06452,0 9.13978,0 18.27957,0 27.41935,0 3.22581,0 6.45161,0 9.67742,0 0.53763,0 1.23274,-0.3802 1.6129,0 0.38017,0.3801 -0.38016,1.2327 0,1.6129 0.38017,0.3801 1.07527,0 1.61291,0 2.15053,0 4.30107,0 6.45161,0 0.53763,0 1.07527,0 1.6129,0 0.53764,0 1.13203,-0.2405 1.61291,0 0.68006,0.34 0.93284,1.2728 1.6129,1.6129 0.3615,0.1807 6.06834,0 6.45161,0 4.83871,0 9.67742,0 14.51613,0 8.06452,0 16.12903,0 24.19355,0 0.39117,0 4.78684,0.052 4.83871,0 0.38016,-0.3802 -0.48088,-1.3725 0,-1.6129 1.11323,-0.5567 8.07761,0.3999 9.67742,0 1.16629,-0.2916 2.08531,-1.2328 3.2258,-1.6129 1.54551,-0.5152 6.57031,0.498 8.06452,0 0.72131,-0.2405 0.89159,-1.3725 1.6129,-1.6129 0.44562,-0.1486 3.89003,0.3162 4.83871,0 1.1405,-0.3802 2.08532,-1.2328 3.22581,-1.6129 1.53013,-0.5101 3.30858,0.51 4.83871,0 0.72131,-0.2405 0.93284,-1.2729 1.6129,-1.613 0.48088,-0.2404 1.07527,0 1.61291,0 0.53763,-0.5376 0.93284,-1.2728 1.6129,-1.6129 0.6395,-0.3197 4.50897,0.3298 4.83871,0 0.38016,-0.3801 -0.38017,-1.2327 0,-1.6129 0.53496,-0.5349 2.69085,0.535 3.22581,0 0.38016,-0.3801 -0.38017,-1.2327 0,-1.6129 0.76033,-0.7603 2.26405,0.4809 3.2258,0 5.34933,-5.3493 -1.52066,0.7604 3.22581,-1.6129 0.68006,-0.34 0.93284,-1.2728 1.6129,-1.6129 0.96175,-0.4808 2.46548,0.7604 3.22581,0 3.33715,-3.3371 -5.09962,0.1305 1.6129,-3.2258 0.96175,-0.4809 2.26406,0.4809 3.22581,0 0.68006,-0.34 0.93284,-1.2728 1.6129,-1.6129 0.48088,-0.2404 1.13203,0.2405 1.6129,0 0.68006,-0.34 0.93285,-1.2729 1.61291,-1.6129 0.48087,-0.2404 1.23274,0.3802 1.6129,0 0.38017,-0.3801 -0.38016,-1.2327 0,-1.6129 0.76033,-0.7603 2.46548,0.7603 3.22581,0 0.38016,-0.3802 -0.38017,-1.2327 0,-1.6129 0.76033,-0.7603 2.46547,0.7603 3.2258,0 0.38017,-0.3802 -0.38016,-1.2327 0,-1.6129 0.38017,-0.3802 1.13203,0.2404 1.61291,0 0.68006,-0.34 0.93284,-1.2729 1.6129,-1.6129 0.96175,-0.4809 2.46548,0.7603 3.22581,0 0.38016,-0.3802 -0.38017,-1.2327 0,-1.6129 0.76033,-0.7603 2.46547,0.7603 3.2258,0 0.38017,-0.3802 -0.38016,-1.2327 0,-1.6129 0.52898,-0.529 2.69683,0.529 3.22581,0 0.38016,-0.3802 -0.38017,-1.2327 0,-1.6129 0.76033,-0.7603 2.46548,0.7603 3.22581,0 0.38016,-0.3802 -0.38017,-1.2327 0,-1.6129 0.76033,-0.7603 2.46547,0.7603 3.2258,0 0.38017,-0.3802 -0.38016,-1.2327 0,-1.6129 0.38017,-0.3802 1.23274,0.3802 1.61291,0 0.38016,-0.3802 -0.38017,-1.2327 0,-1.6129 0.76033,-0.7603 2.46547,0.7603 3.2258,0 0.38017,-0.3802 -0.38016,-1.2328 0,-1.6129 0.80645,-0.8065 4.03226,0.8064 4.83871,0 0.38017,-0.3802 0,-1.0753 0,-1.6129 0.53764,0 1.23274,0.3801 1.6129,0 0.38017,-0.3802 -0.38016,-1.23276 0,-1.61292 0.76033,-0.76033 2.46548,0.76033 3.22581,0 0.38017,-0.38017 -0.38016,-1.23274 0,-1.61291 0.76033,-0.76033 2.46548,0.76033 3.22581,0 0.38016,-0.38016 -0.38017,-1.23274 0,-1.6129 0.38016,-0.38017 1.23274,0.38016 1.6129,0 0.38017,-0.38017 -0.38016,-1.23274 0,-1.6129 0.38017,-0.38017 1.23274,0.38016 1.6129,0 0.38017,-0.38017 -0.38016,-1.23274 0,-1.61291 0.76033,-0.76033 2.46548,0.76033 3.22581,0 0.38017,-0.38016 -0.38016,-1.23274 0,-1.6129 0.38017,-0.38016 1.23274,0.38016 1.6129,0 0,-4.30108 -0.53763,0.53763 1.61291,-1.6129 0.54635,-0.54636 -0.54636,-2.67946 0,-3.22581 0.38016,-0.38016 1.23274,0.38017 1.6129,0 0.76033,-0.76033 -0.76033,-2.46548 0,-3.22581 0.38017,-0.38016 1.23274,0.38017 1.6129,0 0.80646,-0.80645 -0.80645,-4.03225 0,-4.83871 0.38017,-0.38016 1.23274,0.38017 1.61291,0 0.0519,-0.0519 0,-4.44753 0,-4.83871 0,-11.29032 0,-22.58064 0,-33.87096 0,-3.22581 0,-6.45162 0,-9.67742 0,-0.53764 0.38016,-1.23274 0,-1.61291 -0.38017,-0.38016 -1.23274,0.38017 -1.61291,0 -0.38811,-0.38811 0.38812,-6.06349 0,-6.45161 -0.38016,-0.38016 -1.23273,0.38017 -1.6129,0 -0.80645,-0.80645 0.80645,-4.03226 0,-4.83871 -0.38016,-0.38016 -1.23274,0.38017 -1.6129,0 -0.76033,-0.76033 0.76033,-2.46547 0,-3.2258 -0.38017,-0.38017 -1.23274,0.38016 -1.61291,0 -0.80645,-0.80646 0.80646,-4.03226 0,-4.83871 -0.38016,-0.38017 -1.23273,0.38016 -1.6129,0 -0.76033,-0.76033 0.76033,-2.46548 0,-3.22581 -0.38016,-0.38017 -1.23274,0.38016 -1.6129,0 -0.76033,-0.76033 0.76033,-2.46548 0,-3.22581 -0.38017,-0.38016 -1.23274,0.38017 -1.61291,0 -0.76033,-0.76033 0.76033,-2.46547 0,-3.2258 -0.38016,-0.38017 -1.23273,0.38016 -1.6129,0 -0.76033,-0.76033 0.76033,-2.46548 0,-3.22581 -0.38016,-0.38017 -1.23274,0.38016 -1.6129,0 -0.538,-0.538 0.53799,-2.68781 0,-3.22581 -0.38017,-0.38016 -1.23274,0.38017 -1.61291,0 -0.76033,-0.76033 0.76033,-2.46547 0,-3.2258 -0.38016,-0.38017 -1.23273,0.38016 -1.6129,0 -0.80645,-0.80645 0.80645,-4.03226 0,-4.83871 -0.38016,-0.38017 -1.23274,0.38016 -1.6129,0 -0.38017,-0.38017 0.24044,-1.13203 0,-1.61291 -0.34003,-0.68006 -1.27288,-0.93284 -1.61291,-1.6129 -0.24043,-0.48087 0.38017,-1.23274 0,-1.6129 -0.38016,-0.38017 -1.23273,0.38016 -1.6129,0 -0.76033,-0.76033 0.76033,-2.46548 0,-3.22581 -0.38016,-0.38016 -1.23274,0.38017 -1.6129,0 -0.76033,-0.76033 0.76033,-2.46548 0,-3.22581 -0.38017,-0.38016 -1.23274,0.38017 -1.6129,0 -0.76033,-0.76033 0.76033,-2.46547 0,-3.2258 -0.38017,-0.38017 -1.23274,0.38016 -1.61291,0 -0.76033,-0.76033 0.76033,-2.46548 0,-3.22581 -0.38016,-0.38016 -1.23274,0.38017 -1.6129,0 -0.76033,-0.76033 0.76033,-2.46547 0,-3.2258 -0.38017,-0.38017 -1.23274,0.38016 -1.6129,0 -0.76033,-0.76033 0.76033,-2.46548 0,-3.22581 -0.38017,-0.38017 -1.23274,0.38016 -1.61291,0 -0.76033,-0.76033 0.76033,-2.46548 0,-3.22581 -0.38016,-0.38016 -1.23274,0.38017 -1.6129,0 -0.76033,-0.76033 0.76033,-2.46547 0,-3.2258 -0.38017,-0.38017 -1.23274,0.38016 -1.6129,0 -0.76033,-0.76033 0.76033,-2.46548 0,-3.22581 -0.38017,-0.38017 -1.23274,0.38016 -1.61291,0 -0.76033,-0.76033 0.48088,-2.26406 0,-3.22581 -0.34003,-0.68006 -1.27287,-0.93284 -1.6129,-1.6129 -0.24044,-0.48088 0.38016,-1.23274 0,-1.6129 -0.38017,-0.38017 -1.23274,0.38016 -1.6129,0 -0.538,-0.538 0.53799,-2.68781 0,-3.22581 -0.38017,-0.38016 -1.23274,0.38016 -1.61291,0 -0.80645,-0.80645 0.80645,-4.03226 0,-4.83871 -0.38016,-0.38016 -1.23274,0.38017 -1.6129,0 -0.76033,-0.76033 0.48087,-2.26406 0,-3.22581 -0.34003,-0.68006 -1.27287,-0.93284 -1.6129,-1.6129 -0.43749,-0.87498 0.44132,-6.01029 0,-6.45161 -0.38017,-0.38017 -1.23274,0.38016 -1.61291,0 -0.76033,-0.76033 0.76033,-2.46548 0,-3.22581 -0.38016,-0.38016 -1.23274,0.38017 -1.6129,0 -0.80645,-0.80645 0.80645,-4.03226 0,-4.83871 -0.38016,-0.38016 -1.23274,0.38017 -1.6129,0 -0.76033,-0.76033 0.76033,-2.46547 0,-3.2258 -0.38017,-0.38017 -1.23274,0.38016 -1.61291,0 -0.80645,-0.80646 0.80646,-4.03226 0,-4.83871 -0.38016,-0.38017 -1.23273,0.38016 -1.6129,0 -0.38811,-0.38812 0.38811,-6.0635 0,-6.45162 -0.38016,-0.38016 -1.23274,0.38017 -1.6129,0 -0.76033,-0.76033 0.76033,-2.46547 0,-3.2258 -0.38017,-0.38017 -1.23274,0.38016 -1.61291,0 -0.80645,-0.80646 0.80646,-4.03226 0,-4.83871 -0.38016,-0.38017 -1.23273,0.38016 -1.6129,0 -0.80645,-0.80646 0.80645,-4.03226 0,-4.83871 -0.38016,-0.38017 -1.23274,0.38016 -1.6129,0 -0.80645,-0.80645 0.80645,-4.03226 0,-4.83871 -0.38017,-0.38017 -1.23274,0.38016 -1.61291,0 -0.80645,-0.80645 0.80646,-4.03226 0,-4.83871 -0.38016,-0.38017 -1.23273,0.38016 -1.6129,0 -0.80645,-0.80645 0.80645,-4.03226 0,-4.83871 -0.38016,-0.38017 -1.23274,0.38016 -1.6129,0 -0.76033,-0.76033 0.76033,-2.46548 0,-3.22581 -0.38017,-0.38016 -1.23274,0.38017 -1.61291,0 -0.80645,-0.80645 0.80646,-4.03226 0,-4.83871 -0.38016,-0.38016 -1.23273,0.38017 -1.6129,0 -0.76033,-0.76033 0.48088,-2.26406 0,-3.2258 -0.34003,-0.68006 -1.27287,-0.93285 -1.6129,-1.61291 -0.48088,-0.96175 0.76033,-2.46547 0,-3.2258 -0.38017,-0.38017 -1.23274,0.38016 -1.61291,0 -0.76033,-0.76033 0.76033,-2.46548 0,-3.22581 -0.38016,-0.38017 -1.23273,0.38016 -1.6129,0 -0.38016,-0.38017 0.38017,-1.23274 0,-1.6129 -0.38016,-0.38017 -1.23274,0.38016 -1.6129,0 -0.76033,-0.76033 0.48087,-2.26406 0,-3.22581 -0.34003,-0.68006 -1.27287,-0.93284 -1.6129,-1.6129 -0.24044,-0.48088 0.24043,-1.13203 0,-1.61291 -0.34003,-0.68006 -1.27288,-0.93284 -1.61291,-1.6129 -0.24044,-0.48088 0.38017,-1.23274 0,-1.6129 -0.38016,-0.38017 -1.23274,0.38016 -1.6129,0 -0.76033,-0.76033 0.48087,-2.26406 0,-3.22581 -1.05767,-2.11534 -2.16814,-1.11047 -3.22581,-3.22581 -0.48087,-0.96175 0.76033,-2.46547 0,-3.2258 -0.38016,-0.38017 -1.23274,0.38016 -1.6129,0 -0.76033,-0.76033 0.76033,-2.46548 0,-3.22581 -0.38017,-0.38016 -1.23274,0.38017 -1.6129,0 -0.76033,-0.76033 0.76033,-2.46548 0,-3.22581 -0.38017,-0.38016 -1.23274,0.38017 -1.61291,0 -0.76033,-0.76033 0.76033,-2.46547 0,-3.2258 -0.38016,-0.38017 -1.23274,0.38016 -1.6129,0 -0.38017,-0.38017 0.24044,-1.13203 0,-1.61291 -0.34003,-0.68006 -1.27287,-0.93284 -1.6129,-1.6129 -0.48088,-0.96175 0.76033,-2.46548 0,-3.22581 -0.38017,-0.38016 -1.23274,0.38017 -1.61291,0 -0.38016,-0.38016 0.24044,-1.13202 0,-1.6129 -0.34003,-0.68006 -1.27287,-0.93284 -1.6129,-1.6129 -0.24044,-0.48088 0.38016,-1.23274 0,-1.6129 -0.38017,-0.38017 -1.23274,0.38016 -1.6129,0 -0.53496,-0.53496 0.53495,-2.69085 0,-3.22581 -0.38017,-0.38017 -1.23274,0.38016 -1.61291,0 -0.38016,-0.38017 0.24044,-1.13203 0,-1.6129 -0.34003,-0.68006 -1.27287,-0.93285 -1.6129,-1.61291 -0.24044,-0.48087 0.38016,-1.23274 0,-1.6129 -0.38016,-0.38017 -1.23274,0.38016 -1.6129,0 -0.53196,-0.53195 0.53195,-2.69386 0,-3.22581 -0.38017,-0.38016 -1.23274,0.38017 -1.61291,0 -0.76033,-0.76033 0.76033,-2.46547 0,-3.2258 -0.38016,-0.38017 -1.23273,0.38016 -1.6129,0 -0.76033,-0.76033 0.76033,-2.46548 0,-3.22581 -0.38016,-0.38017 -1.23274,0.38016 -1.6129,0 -0.38017,-0.38017 0.38016,-1.23274 0,-1.6129 -0.38017,-0.38017 -1.23274,0.38016 -1.61291,0 -0.38016,-0.38017 0.38017,-1.23274 0,-1.61291 -0.38016,-0.38016 -1.23273,0.38017 -1.6129,0 -0.76033,-0.76033 0.76033,-2.46547 0,-3.2258 -0.38016,-0.38017 -1.23274,0.38016 -1.6129,0 -0.76033,-0.76033 0.76033,-2.46548 0,-3.22581 -0.38017,-0.38016 -1.23274,0.38017 -1.61291,0 -0.38016,-0.38016 0.38017,-1.23274 0,-1.6129 -0.38016,-0.38017 -1.23273,0.38016 -1.6129,0 -0.76033,-0.76033 0.76033,-2.46548 0,-3.22581 -0.38016,-0.38016 -1.23274,0.38017 -1.6129,0 -0.76033,-0.76033 0.76033,-2.46548 0,-3.22581 -0.38017,-0.38016 -1.23274,0.38017 -1.61291,0 -0.76033,-0.76033 0.76033,-2.46547 0,-3.2258 -0.38016,-0.38017 -1.23273,0.38016 -1.6129,0 -0.38016,-0.38017 0.38017,-1.23274 0,-1.61291 -0.38016,-0.38016 -1.23274,0.38017 -1.6129,0 -0.38017,-0.38016 0.38016,-1.23273 0,-1.6129 -0.38017,-0.38016 -1.23274,0.38017 -1.61291,0 -0.53495,-0.53496 0.53496,-2.69085 0,-3.22581 -0.38016,-0.38016 -1.23273,0.38017 -1.6129,0 -0.38016,-0.38016 0.38017,-1.23273 0,-1.6129 -0.76033,-0.76033 -2.46547,0.76033 -3.2258,0 -0.38017,-0.38016 0.38016,-1.23274 0,-1.6129 -0.0731,-0.0731 -7.30404,0 -8.06452,0 -4.30108,0 0.53763,-0.53764 -1.6129,1.6129 -0.38017,0.38017 -1.23274,-0.38016 -1.61291,0 -0.38016,0.38017 0.38017,1.23274 0,1.6129 -0.38016,0.38017 -1.13203,-0.24043 -1.6129,0 -0.68006,0.34003 -0.93284,1.27288 -1.6129,1.61291 -0.48088,0.24044 -1.23274,-0.38017 -1.61291,0 -0.76033,0.76033 0.76033,2.46547 0,3.2258 -0.38016,0.38017 -1.23274,-0.38016 -1.6129,0 -0.38017,0.38017 0.38016,1.23274 0,1.61291 -0.38017,0.38016 -1.23274,-0.38017 -1.6129,0 -0.53549,0.53549 0.53548,2.69032 0,3.2258 -0.38017,0.38017 -1.23274,-0.38016 -1.61291,0 -0.38016,0.38017 0.38017,1.23274 0,1.61291 -0.38016,0.38016 -1.23274,-0.38017 -1.6129,0 -0.38016,0.38016 0.38016,1.23274 0,1.6129 -0.38016,0.38017 -1.23274,-0.38016 -1.6129,0 -0.38017,0.38017 0.38016,1.23274 0,1.6129 -0.80645,0.80646 -4.03226,-0.80645 -4.83871,0 -0.38017,0.38017 0.38016,1.23274 0,1.61291 -0.80645,0.80645 -4.03226,-0.80645 -4.83871,0 -0.38017,0.38016 0.38016,1.23274 0,1.6129 -0.80645,0.80645 -4.03226,-0.80645 -4.83871,0 -0.38017,0.38017 0.38016,1.23274 0,1.6129 -0.38812,0.38812 -6.0635,-0.38811 -6.45162,0 -0.38016,0.38017 0.38017,1.23274 0,1.61291 -0.38016,0.38016 -1.07526,0 -1.6129,0 -2.68817,0 -5.37634,0 -8.06451,0 -0.53764,0 -1.23274,-0.38017 -1.61291,0 -0.38016,0.38016 0.38017,1.23274 0,1.6129 -0.38016,0.38016 -1.07527,0 -1.6129,0 -0.53764,0 -1.07527,0 -1.6129,0 -6.45162,0 -12.90323,0 -19.35484,0 -0.39118,0 -4.78684,-0.0519 -4.83871,0 -0.38017,0.38016 0.38016,1.23274 0,1.6129 -0.38017,0.38017 -1.07527,0 -1.61291,0 -4.30107,0 -8.60215,0 -12.90322,0 -0.39117,0 -4.78684,0.0519 -4.83871,0 -0.38017,-0.38016 0.38016,-1.23274 0,-1.6129 -0.38017,-0.38016 -1.07527,0 -1.6129,0 -2.68818,0 -5.37635,0 -8.06452,0 -0.53764,0 -1.23274,0.38016 -1.6129,0 -0.38017,-0.38016 0.38016,-1.23274 0,-1.6129 -0.38812,-0.38812 -6.0635,0.38811 -6.45162,0 -0.38016,-0.38017 0.38017,-1.23274 0,-1.61291 -0.32973,-0.32973 -4.1992,0.31976 -4.83871,0 -0.68006,-0.34003 -0.93284,-1.27287 -1.6129,-1.6129 -0.96175,-0.48087 -2.46548,0.76033 -3.22581,0 -0.38016,-0.38016 0.38017,-1.23274 0,-1.6129 -0.53799,-0.538 -2.68781,0.53799 -3.2258,0 -0.38017,-0.38017 0.38016,-1.23274 0,-1.61291 -0.76033,-0.76033 -2.46548,0.76033 -3.22581,0 -0.38016,-0.38016 0.38017,-1.23273 0,-1.6129 -0.38016,-0.38016 -1.07527,0 -1.6129,0 0,-0.53763 0.38016,-1.23274 0,-1.6129 -0.38017,-0.38017 -1.23274,0.38016 -1.61291,0 -0.38016,-0.38017 0.38017,-1.23274 0,-1.61291 -0.76033,-0.76033 -2.46547,0.76033 -3.2258,0 -0.38017,-0.38016 0.38016,-1.23273 0,-1.6129 -0.76033,-0.76033 -2.46548,0.76033 -3.22581,0 -0.38016,-0.38016 0.38017,-1.23274 0,-1.6129 -0.80645,-0.80645 -4.03226,0.80645 -4.83871,0 -0.38016,-0.38017 0.38017,-1.23274 0,-1.61291 -0.76033,-0.76033 -2.46547,0.76033 -3.2258,0 -0.38017,-0.38016 0.38016,-1.23273 0,-1.6129 -0.38017,-0.38016 -1.23274,0.38017 -1.61291,0 -0.38016,-0.38016 0.5272,-1.71834 0,-1.6129 -2.83902,0.5678 -5.37634,2.15054 -8.06451,3.2258 z"
       id="path3821"
       inkscape:connector-curvature="0" />
    <path
       style="fill:none;stroke:#000000;stroke-width:1px;stroke-linecap:butt;stroke-linejoin:miter;stroke-opacity:1"
       d="m -988.70968,453.97508 c 93.65176,37.02781 112.9494,37.85805 175.80645,1.6129 l 126.86539,281.53525 8.61848,50.72282 -49.39068,33.64803 -68.35125,17.9649 -225.80651,-4.8387 -53.0218,-14.8667 -29.2362,-33.52043 4.3959,-49.56981 z"
       id="path3843"
       inkscape:connector-curvature="0"
       sodipodi:nodetypes="ccccccccccc" />
  </g>
</svg>
